# Blender 4.3.2
# www.blender.org
mtllib acidbottle.mtl
o Cube
v 0.340046 1.000000 -0.340046
v 1.000000 -1.000000 -1.000000
v 0.340046 1.000000 0.340046
v 1.000000 -1.000000 1.000000
v -0.340046 1.000000 -0.340046
v -1.000000 -1.000000 -1.000000
v -0.340046 1.000000 0.340046
v -1.000000 -1.000000 1.000000
v 0.340046 1.773285 0.340046
v -0.340046 1.773285 0.340046
v 0.340046 1.773285 -0.340046
v -0.340046 1.773285 -0.340046
v 0.522332 1.773285 0.522332
v -0.522332 1.773285 0.522332
v 0.522332 1.773285 -0.522332
v -0.522332 1.773285 -0.522332
v 0.522332 2.051252 0.522332
v -0.522332 2.051252 0.522332
v 0.522332 2.051252 -0.522332
v -0.522332 2.051252 -0.522332
v 0.726228 -0.170331 -0.726228
v -0.726228 -0.170331 0.726228
v 0.726228 -0.170331 0.726228
v -0.726228 -0.170331 -0.726228
v 0.726228 -0.170331 -0.726228
v 0.726228 -0.170331 0.726228
v 0.726228 -0.170331 -0.726228
v 0.726228 -0.170331 0.726228
v 0.726228 -0.170331 -0.726228
v 0.726228 -0.170331 0.726228
v -0.719344 -0.170331 -0.726228
v -0.719344 -0.170331 0.726228
vn -0.0000 -0.0000 1.0000
vn -0.0000 0.3134 0.9496
vn -0.9496 0.3134 -0.0000
vn -0.0000 -1.0000 -0.0000
vn 0.9496 0.3134 -0.0000
vn -0.0000 0.3134 -0.9496
vn -1.0000 -0.0000 -0.0000
vn 1.0000 -0.0000 -0.0000
vn -0.0000 -0.0000 -1.0000
vn -0.0000 1.0000 -0.0000
vt 0.625000 1.000000
vt 0.625000 0.750000
vt 0.478709 0.750000
vt 0.478709 1.000000
vt 0.478709 0.000000
vt 0.625000 0.000000
vt 0.625000 0.250000
vt 0.478709 0.250000
vt 0.125000 0.500000
vt 0.375000 0.500000
vt 0.375000 0.750000
vt 0.125000 0.750000
vt 0.478709 0.500000
vt 0.625000 0.500000
vt 0.875000 0.500000
vt 0.875000 0.750000
vt 0.375000 0.250000
vt 0.375000 0.000000
vt 0.375000 1.000000
s 0
usemtl Material
f 6/9/4 2/10/4 4/11/4 8/12/4
f 6/17/6 24/8/6 21/13/6 2/10/6
f 2/10/5 21/13/5 23/3/5 4/11/5
f 8/18/3 22/5/3 24/8/3 6/17/3
f 4/11/2 23/3/2 22/4/2 8/19/2
f 30/3/10 29/13/10 31/13/10 32/3/10
usemtl Material.001
f 7/1/1 3/2/1 9/2/1 10/1/1
f 23/3/2 3/2/2 7/1/2 22/4/2
f 22/5/3 7/6/3 5/7/3 24/8/3
f 21/13/5 1/14/5 3/2/5 23/3/5
f 24/8/6 5/7/6 1/14/6 21/13/6
f 5/7/7 7/6/7 10/6/7 12/7/7
f 3/2/8 1/14/8 11/14/8 9/2/8
f 1/14/9 5/7/9 12/7/9 11/14/9
f 23/3/10 21/13/10 25/13/10 26/3/10
f 26/3/10 25/13/10 27/13/10 28/3/10
f 28/3/10 27/13/10 29/13/10 30/3/10
usemtl Material.002
f 11/14/4 12/7/4 16/7/4 15/14/4
f 16/7/7 14/6/7 18/6/7 20/7/7
f 9/2/4 11/14/4 15/14/4 13/2/4
f 12/7/4 10/6/4 14/6/4 16/7/4
f 10/1/4 9/2/4 13/2/4 14/1/4
f 19/14/10 20/15/10 18/16/10 17/2/10
f 14/1/1 13/2/1 17/2/1 18/1/1
f 15/14/9 16/7/9 20/7/9 19/14/9
f 13/2/8 15/14/8 19/14/8 17/2/8
