# Blender 4.3.2
# www.blender.org
mtllib Burnt.mtl
o Cube
v -0.542251 -0.185972 0.517955
v -0.542251 0.185972 0.517955
v -0.542251 -0.185972 -0.517955
v -0.542251 0.185972 -0.517955
v 0.542251 -0.185972 0.517955
v 0.542251 0.185972 0.517955
v 0.542251 -0.185972 -0.517955
v 0.542251 0.185972 -0.517955
v -0.363608 0.185972 0.347316
v -0.363608 0.185972 -0.347316
v 0.363608 0.185972 -0.347316
v 0.363608 0.185972 0.347316
v -0.363608 0.408492 0.347316
v -0.363608 0.408492 -0.347316
v 0.363608 0.408492 -0.347316
v 0.363608 0.408492 0.347316
v -0.237835 0.408492 0.227179
v -0.237835 0.408492 -0.227179
v 0.237835 0.408492 -0.227179
v 0.237835 0.408492 0.227179
v -0.237835 0.635724 0.227179
v -0.237835 0.635724 -0.227179
v 0.237835 0.635724 -0.227179
v 0.237835 0.635724 0.227179
v 0.536320 -0.147272 0.448061
v 0.536320 -0.004629 0.448061
v 0.536320 -0.147272 0.168231
v 0.536320 -0.004629 0.168231
v 0.816149 -0.147272 0.448061
v 0.816149 -0.004629 0.448061
v 0.816149 -0.147272 0.168231
v 0.816149 -0.004629 0.168231
v -0.475175 -0.147272 0.800204
v -0.475175 -0.004629 0.800204
v -0.475175 -0.147272 0.520374
v -0.475175 -0.004629 0.520374
v -0.195346 -0.147272 0.800204
v -0.195346 -0.004629 0.800204
v -0.195346 -0.147272 0.520374
v -0.195346 -0.004629 0.520374
vn -1.0000 -0.0000 -0.0000
vn -0.0000 -0.0000 -1.0000
vn 1.0000 -0.0000 -0.0000
vn -0.0000 -0.0000 1.0000
vn -0.0000 -1.0000 -0.0000
vn -0.0000 1.0000 -0.0000
vt 0.375000 0.000000
vt 0.625000 0.000000
vt 0.625000 0.250000
vt 0.375000 0.250000
vt 0.625000 0.500000
vt 0.375000 0.500000
vt 0.625000 0.750000
vt 0.375000 0.750000
vt 0.625000 1.000000
vt 0.375000 1.000000
vt 0.125000 0.500000
vt 0.125000 0.750000
vt 0.875000 0.500000
vt 0.875000 0.750000
s 0
usemtl Material.005
f 1/1/1 2/2/1 4/3/1 3/4/1
f 3/4/2 4/3/2 8/5/2 7/6/2
f 7/6/3 8/5/3 6/7/3 5/8/3
f 5/8/4 6/7/4 2/9/4 1/10/4
f 3/11/5 7/6/5 5/8/5 1/12/5
f 2/9/6 6/7/6 12/7/6 9/9/6
f 12/7/3 11/5/3 15/5/3 16/7/3
f 8/5/6 4/3/6 10/3/6 11/5/6
f 6/7/6 8/5/6 11/5/6 12/7/6
f 4/3/6 2/2/6 9/2/6 10/3/6
f 13/9/6 16/7/6 20/7/6 17/9/6
f 10/3/1 9/2/1 13/2/1 14/3/1
f 9/9/4 12/7/4 16/7/4 13/9/4
f 11/5/2 10/3/2 14/3/2 15/5/2
f 20/7/3 19/5/3 23/5/3 24/7/3
f 15/5/6 14/3/6 18/3/6 19/5/6
f 16/7/6 15/5/6 19/5/6 20/7/6
f 14/3/6 13/2/6 17/2/6 18/3/6
f 23/5/6 22/13/6 21/14/6 24/7/6
f 18/3/1 17/2/1 21/2/1 22/3/1
f 17/9/4 20/7/4 24/7/4 21/9/4
f 19/5/2 18/3/2 22/3/2 23/5/2
f 25/1/1 26/2/1 28/3/1 27/4/1
f 27/4/2 28/3/2 32/5/2 31/6/2
f 31/6/3 32/5/3 30/7/3 29/8/3
f 29/8/4 30/7/4 26/9/4 25/10/4
f 27/11/5 31/6/5 29/8/5 25/12/5
f 32/5/6 28/13/6 26/14/6 30/7/6
f 33/1/1 34/2/1 36/3/1 35/4/1
f 35/4/2 36/3/2 40/5/2 39/6/2
f 39/6/3 40/5/3 38/7/3 37/8/3
f 37/8/4 38/7/4 34/9/4 33/10/4
f 35/11/5 39/6/5 37/8/5 33/12/5
f 40/5/6 36/13/6 34/14/6 38/7/6
