# Blender 4.3.2
# www.blender.org
mtllib SulfAcid.mtl
o Cube
v 0.359973 1.000000 -0.359973
v 1.000000 -1.000000 -1.000000
v 0.359973 1.000000 0.359973
v 1.000000 -1.000000 1.000000
v -0.359973 1.000000 -0.359973
v -1.000000 -1.000000 -1.000000
v -0.359973 1.000000 0.359973
v -1.000000 -1.000000 1.000000
v 0.359973 2.808547 0.359973
v -0.359973 2.808547 0.359973
v 0.359973 2.808547 -0.359973
v -0.359973 2.808547 -0.359973
v 0.499881 2.808547 0.499881
v -0.499881 2.808547 0.499881
v 0.499881 2.808547 -0.499881
v -0.499881 2.808547 -0.499881
v 0.499881 3.026384 0.499881
v -0.499881 3.026384 0.499881
v 0.499881 3.026384 -0.499881
v -0.499881 3.026384 -0.499881
v 0.644152 0.111977 -0.644152
v -0.644152 0.111977 0.644152
v 0.644152 0.111977 0.644152
v -0.644152 0.111977 -0.644152
v -0.644152 0.111977 -0.627198
v 0.644152 0.111977 -0.627198
vn -1.0000 -0.0000 -0.0000
vn -0.0000 0.3048 0.9524
vn -0.9524 0.3048 -0.0000
vn -0.0000 -1.0000 -0.0000
vn 0.9524 0.3048 -0.0000
vn -0.0000 0.3048 -0.9524
vn 1.0000 -0.0000 -0.0000
vn -0.0000 -0.0000 -1.0000
vn -0.0000 -0.0000 1.0000
vn -0.0000 1.0000 -0.0000
vt 0.625000 0.250000
vt 0.625000 0.000000
vt 0.513997 0.750000
vt 0.625000 0.750000
vt 0.625000 1.000000
vt 0.513997 1.000000
vt 0.513997 0.000000
vt 0.513997 0.250000
vt 0.125000 0.500000
vt 0.375000 0.500000
vt 0.375000 0.750000
vt 0.125000 0.750000
vt 0.513997 0.500000
vt 0.625000 0.500000
vt 0.875000 0.500000
vt 0.875000 0.750000
vt 0.375000 0.250000
vt 0.375000 0.000000
vt 0.375000 1.000000
s 0
usemtl Material
f 6/9/4 2/10/4 4/11/4 8/12/4
f 6/17/6 24/8/6 21/13/6 2/10/6
f 2/10/5 21/13/5 23/3/5 4/11/5
f 8/18/3 22/7/3 24/8/3 6/17/3
f 4/11/2 23/3/2 22/6/2 8/19/2
f 22/6/10 23/3/10 26/3/10 25/6/10
usemtl Material.001
f 5/1/1 7/2/1 10/2/1 12/1/1
f 23/3/2 3/4/2 7/5/2 22/6/2
f 22/7/3 7/2/3 5/1/3 24/8/3
f 21/13/5 1/14/5 3/4/5 23/3/5
f 24/8/6 5/1/6 1/14/6 21/13/6
f 3/4/7 1/14/7 11/14/7 9/4/7
f 1/14/8 5/1/8 12/1/8 11/14/8
f 7/5/9 3/4/9 9/4/9 10/5/9
usemtl Material.002
f 12/1/4 10/2/4 14/2/4 16/1/4
f 14/5/9 13/4/9 17/4/9 18/5/9
f 10/5/4 9/4/4 13/4/4 14/5/4
f 11/14/4 12/1/4 16/1/4 15/14/4
f 9/4/4 11/14/4 15/14/4 13/4/4
f 19/14/10 20/15/10 18/16/10 17/4/10
f 15/14/8 16/1/8 20/1/8 19/14/8
f 13/4/7 15/14/7 19/14/7 17/4/7
f 16/1/1 14/2/1 18/2/1 20/1/1
