# Blender 4.3.2
# www.blender.org
mtllib Product.mtl
o Cube
v -1.000000 -1.229268 0.091977
v -1.000000 1.229268 0.091977
v -1.000000 -1.229268 -0.091977
v -1.000000 1.229268 -0.091977
v 1.000000 -1.229268 0.091977
v 1.000000 1.229268 0.091977
v 1.000000 -1.229268 -0.091977
v 1.000000 1.229268 -0.091977
v -1.000000 1.062318 0.010438
v -1.000000 1.062318 -0.010438
v 1.000000 1.062318 -0.010438
v 1.000000 1.062318 0.010438
v -1.000000 0.970153 -0.010438
v 1.000000 0.970153 -0.010438
v 1.000000 0.970153 0.010438
v -1.000000 0.970153 0.010438
v -1.000000 -0.297388 -0.091977
v 1.000000 -0.297388 -0.091977
v 1.000000 -0.297388 0.091977
v -1.000000 -0.297388 0.091977
v 0.500000 0.008317 -0.091977
v 0.000000 -0.273146 -0.091977
v 0.000000 -0.273146 0.091977
v -0.500000 -0.193458 0.091977
v 0.500000 0.008317 0.091977
v -0.500000 -0.193458 -0.091977
vn -1.0000 -0.0000 -0.0000
vn -0.0000 -0.4389 -0.8986
vn 1.0000 -0.0000 -0.0000
vn -0.0000 -0.4389 0.8986
vn -0.0000 -1.0000 -0.0000
vn -0.0000 1.0000 -0.0000
vn -0.0000 -0.0000 1.0000
vn -0.0000 -0.0000 -1.0000
vn -0.0000 0.0702 -0.9975
vn -0.0000 0.0702 0.9975
vn 0.5216 0.8532 -0.0000
vn -0.4905 0.8714 -0.0000
vn 0.1574 0.9875 -0.0000
vn -0.2035 0.9791 -0.0000
vt 0.608023 0.000000
vt 0.625000 0.000000
vt 0.625000 0.250000
vt 0.608023 0.250000
vt 0.625000 0.500000
vt 0.608023 0.500000
vt 0.625000 0.750000
vt 0.608023 0.750000
vt 0.625000 1.000000
vt 0.608023 1.000000
vt 0.125000 0.500000
vt 0.375000 0.500000
vt 0.375000 0.750000
vt 0.125000 0.750000
vt 0.875000 0.500000
vt 0.875000 0.750000
vt 0.598651 0.750000
vt 0.598651 1.000000
vt 0.598651 0.500000
vt 0.598651 0.250000
vt 0.598651 0.000000
vt 0.469760 0.000000
vt 0.469760 0.250000
vt 0.469760 0.500000
vt 0.469760 0.437500
vt 0.469760 0.375000
vt 0.469760 0.312500
vt 0.469760 0.750000
vt 0.469760 1.000000
vt 0.469760 0.937500
vt 0.469760 0.875000
vt 0.469760 0.812500
vt 0.375000 1.000000
vt 0.375000 0.250000
vt 0.375000 0.000000
vt 0.000000 0.000000
s 0
usemtl Material.001
f 9/1/1 2/2/1 4/3/1 10/4/1
f 10/4/2 4/3/2 8/5/2 11/6/2
f 11/6/3 8/5/3 6/7/3 12/8/3
f 12/8/4 6/7/4 2/9/4 9/10/4
f 8/5/6 4/15/6 2/16/6 6/7/6
f 20/22/1 16/21/1 13/20/1 17/23/1
f 17/23/9 13/20/9 14/19/9 18/24/9 21/25/9 22/26/9 26/27/9
f 18/24/3 14/19/3 15/17/3 19/28/3
f 19/28/10 15/17/10 16/18/10 20/29/10 24/30/10 23/31/10 25/32/10
usemtl Material.003
f 3/11/5 7/12/5 5/13/5 1/14/5
f 5/13/7 19/28/7 25/32/7 23/31/7 24/30/7 20/29/7 1/33/7
f 7/12/3 18/24/3 19/28/3 5/13/3
f 3/34/8 17/23/8 26/27/8 22/26/8 21/25/8 18/24/8 7/12/8
f 1/35/1 20/22/1 17/23/1 3/34/1
f 18/36/11 21/36/11 25/36/11 19/36/11
f 25/36/12 21/36/12 22/36/12 23/36/12
f 26/36/13 24/36/13 23/36/13 22/36/13
f 24/36/14 26/36/14 17/36/14 20/36/14
usemtl Material.004
f 15/17/7 12/8/7 9/10/7 16/18/7
f 14/19/3 11/6/3 12/8/3 15/17/3
f 13/20/8 10/4/8 11/6/8 14/19/8
f 16/21/1 9/1/1 10/4/1 13/20/1
